<?xml version="1.0" encoding="UTF-8"?>
<svg id="Capa_1" data-name="Capa 1" xmlns="http://www.w3.org/2000/svg" viewBox="0 0 224.9 224.9">
  <defs>
    <style>
      .cls-1 {
        fill: #fff;
        stroke: #fff;
        stroke-miterlimit: 10;
        stroke-width: 2px;
      }
    </style>
  </defs>
  <path class="cls-1" d="M121.8,204c-5.5,.4-10.6-2-15.9-3.4-7.7-2.1-15.4-4.2-22.9-6.7-8.2-2.8-14.4,1.9-21.1,5-1.8,.8-.7,2.2-.3,3.4,2.8,8.1,1.1,11.9-6.8,15.3-4.3,1.8-8.5,3.7-12.9,5.4-6.3,2.4-11.3,.4-13.9-5.8-8.6-20.5-17.2-41-25.7-61.6-2.9-7.1-.8-11.9,6.2-14.8,4.4-1.9,8.9-3.8,13.3-5.6,6-2.4,11.2-.9,13.7,5,1.6,3.7,3.2,3.1,5.9,1.8,9-4.4,18-8.6,27-12.8,12.3-5.8,24.3-4.9,35.5,2.5,6.9,4.6,14.8,5.7,22.3,8,8.1,2.5,17.3,2.7,22.7,11,1.1,1.8,3.1,.3,4.6,0,14.2-4,28.4-8.2,42.7-12,5-1.4,10.3-1.4,15.3-.2,8.9,2,13.7,9.4,12,18.4-1.5,7.7-5.7,13.6-13.1,16.5-24.7,9.7-49.5,19.2-74.4,28.6-4.5,1.7-9.3,2.6-14.3,2.4Zm-37.5-72.1c-3.9-.2-7.9,.7-11.5,2.3-10.3,4.7-20.4,9.8-30.6,14.4-3,1.4-1.7,3.1-.9,4.8,4.9,11.8,10,23.5,14.8,35.4,1.5,3.8,3,4.9,6.6,2.5,8.4-5.6,17.3-5.9,26.7-2.5,6.4,2.3,13.2,3.6,19.5,5.9,10.7,4,20.9,2.7,31.1-1.3,22.4-8.7,44.9-17.4,67.4-26,5.2-2,8.4-5.9,9.7-11.2,1.5-6.5-1.7-11.3-8.3-12.1-3.1-.4-6.5-.5-9.4,.3-15.2,4.1-30.3,8.6-45.5,12.9-1.9,.5-2.4,1.6-2.7,3.5-1.6,11.7-10.9,17.8-22.4,14.8-11.9-3.1-23.7-6.4-35.6-9.6-2.5-.7-5.4-1.2-4.6-4.5,.8-3.3,3.6-2.5,6.2-1.8,12.2,3.3,24.4,6.6,36.6,9.7,6.4,1.6,11.9-1.8,13.4-7.9,1.3-5.3-2.2-10.7-8.1-12.5-3.7-1.1-7.4-2-11.1-3-9.7-2.7-19.6-4.7-28.2-10.8-3.6-2.6-8.2-3.5-13-3.4Zm-27.9,75.4c-.2-.6-.3-1.4-.7-2.2-8.6-20.5-17.2-41.1-25.7-61.6-1.1-2.7-3-3.4-5.6-2.3-4.6,1.9-9.2,3.9-13.8,5.8-3,1.2-3.5,3.3-2.4,6,8.5,20.4,17,40.8,25.4,61.2,1.2,2.9,3.1,3.7,5.9,2.6,4.6-1.8,9.2-3.8,13.9-5.7,1.7-.7,2.8-1.7,2.9-3.9Z"/>
  <path class="cls-1" d="M187.8,96.1c-4.4-.5-8.2,.4-12.1,4-6.6,6-15.8,6.6-24.4,7.5-10.5,1.1-20.9,0-31-3.2-3-1-6.4-1.9-8.3-4.4-3.1-4.1-7-4-11.4-4-9,0-18-.9-26.3-4.7-8.6-4-11.1-8.6-9.6-17.9,2.3-15.1,11-25.2,25.3-30,14.1-4.7,27-1.3,37.7,9,2.5,2.4,4.5,2.9,7.7,2,6-1.7,12.2-1.7,18.2,.3,2.8,.9,4.4,.2,6.4-1.9,10.6-10.5,23.4-14.1,37.6-9.6,14.6,4.6,23.3,14.9,25.9,30,1.6,9-.9,13.7-9.2,17.8-8.3,4-17.3,4.7-26.5,5.1Zm-44.8,5.4c11,0,20.7-1.9,26.3-4.7,4.5-2.2,6.2-5.5,5.4-10.5-2.4-15.1-15.3-26.4-30.4-26.5-15.3,0-28.1,10.7-30.7,26-1.1,6.4,0,8.5,6.1,11.4,7.7,3.7,16,4,23.3,4.3Zm-42.6-11.6c1.9-1.2,5.9,2,6.5-2.6,1.4-11.2,6.3-20.2,15.4-26.9,2.1-1.6,1.9-2.6,.2-4.1-9.3-8.2-20-10.6-31.6-6.3-11.6,4.3-18.1,12.9-20,25.2-.8,5.2,1.4,8.2,5.9,10.1,7.5,3.3,15.4,3.9,23.6,4.6Zm86.3-41.9c-8,0-14.9,2.7-20.9,8.1-1.9,1.7-2.2,2.7,.1,4.4,8.9,6.6,14,15.4,15,26.5,.2,1.9,.8,2.7,2.7,2.7,9.9,0,19.6-.7,28.7-5,3.7-1.7,5.3-4.5,4.9-8.8-1.6-15.9-14.5-27.9-30.5-27.9Z"/>
  <path class="cls-1" d="M186.7,1c10.5,0,19,8.7,18.8,19.2-.2,10.5-8.8,18.9-19.3,18.7-10.3-.2-18.6-8.6-18.6-19,0-10.6,8.5-19,19.1-19Zm-.2,31.3c7,0,12.3-5.2,12.4-12.2,0-7-5.2-12.4-12-12.6-7-.2-12.8,5.5-12.8,12.5,0,6.8,5.6,12.2,12.4,12.3Z"/>
  <path class="cls-1" d="M82.6,19.9c0-10.7,8.4-19,19-18.9,10.3,.1,18.7,8.5,18.8,18.8,0,10.4-8.5,19.1-18.9,19.1-10.6,0-18.9-8.4-18.9-19.1Zm31.2,.2c0-6.9-5.3-12.4-12.2-12.5-6.8-.1-12.5,5.3-12.7,12-.2,7.1,5.4,12.7,12.5,12.7,7,0,12.4-5.4,12.4-12.2Z"/>
  <path class="cls-1" d="M143.9,12.8c10.5,0,19,8.4,19,19,0,10.3-8.2,18.7-18.6,18.9-10.3,.2-19.3-8.4-19.3-18.8,0-10.4,8.5-19.1,18.9-19.1Zm.3,31.4c6.7,0,12.4-5.7,12.4-12.3,0-6.8-5.9-12.7-12.8-12.6-6.9,0-12.3,5.5-12.3,12.4,0,7,5.6,12.6,12.6,12.5Z"/>
</svg>