<?xml version="1.0" encoding="UTF-8"?>
<svg id="Capa_1" data-name="Capa 1" xmlns="http://www.w3.org/2000/svg" viewBox="0 0 231 230.1">
  <defs>
    <style>
      .cls-1 {
        fill: #fff;
      }
    </style>
  </defs>
  <path class="cls-1" d="M115.6,229.9c-36.1,0-72.3,0-108.4,0-1.3,0-2.7,.1-4,0-1.8-.3-3-1.4-3.1-3.3,0-1.7,1.1-2.7,2.6-3.2,.5-.1,1-.2,1.5-.2,2.4-.4,5.8,1.2,7-.8,1.2-2,.6-5.1,.6-7.8,0-51.1,0-102.2,0-153.3,0-3.4-.1-5.4-4.6-5.3-4.6,0-7.1-3.3-7.2-7.9-.2-5,0-10,0-15,0-6.2,2.9-9,9.3-9.1,16.2,0,32.3-.2,48.4,0,3.9,0,4.6-1.2,4.6-4.8C62.4,2.2,64.7,0,81.7,0c24.5,0,49,0,73.4,0,8.9,0,13.5,4.5,13.5,13.5,0,10.5,.2,21,0,31.5,0,3.4,1.1,4.1,4.2,4.1,15.6-.2,31.3-.2,47,0,3.2,0,4.5-.8,4.2-4.2-.3-4.4,1.3-10.2-.9-13-2.4-3.1-8.4-.9-12.8-1-9.2-.2-18.3,0-27.5,0-2.4,0-5-.1-5.1-3.3-.2-3.6,2.6-3.7,5.2-3.7,13,0,26,0,39,0,6,0,8.9,2.9,9,8.8,0,5,.1,10,0,15-.1,5.1-2.9,8.2-8,8.2-3.1,0-3.9,1-3.9,4,0,53.1,0,106.2,0,159.3,0,3.1,.9,4,4,3.9,3,0,7.8-1.4,7.6,3.6-.2,4.6-4.7,3.1-7.6,3.1-35.8,0-71.6,0-107.4,0Zm59-79.3c.8,.8,1.6,1.9,2.6,2.7,7,6.1,10.2,13.6,9.7,23-.4,6.6,0,13.3,0,20,0,10-4.5,14.7-14.6,14.7-3.4,0-4.5,1-4.1,4.3,.2,1.3,.2,2.7,0,4-.5,3.1,.8,4,3.9,3.9,6.7-.2,13.3-.3,20,0,4.1,.2,4.9-1.2,4.9-5-.1-34.5-.2-68.9,0-103.4,0-4.3-.9-5.6-5.4-5.6-52.3,.2-104.6,.1-156.9,.1-6.7,0-7.2-.5-7.2-7,0-14.2,0-28.3,0-42.5,0-3.1-.9-3.8-3.9-4-4.1-.2-4.9,1.2-4.9,5,.1,52.5,0,104.9,0,157.4,0,1,0,2,0,3,0,.9,.3,1.4,1.3,1.8,4.4,1.6,7.3-.3,7.3-4.9,0-30.6,0-61.3,0-91.9,0-1.3,0-2.7,0-4,.2-2.2,1.1-4,3.6-3.9,2.5,.1,3.2,1.9,3.2,4.2,0,3,0,6,0,9,0,29,0,57.9,0,86.9,0,3.8,1,4.9,4.7,4.7,6.3-.3,12.7-.2,19,0,3,0,5.9,.3,5-4.2-.7-3.2,2.6-8.3-4.9-8-8.9,.4-13.7-4.9-13.7-14,0-6.7,.3-13.3,0-20-.6-9.7,2.5-17.7,10-23.8,2.3-1.9,2.9-3.2,0-5-2.1-1.3-4.5-3.1-2.6-6,2-2.9,4.4-1.3,6.4,.4,1.9,1.7,2.6,1.1,3.3-1.1,1.5-4.7,3.2-9.4,4.9-14.1,2.9-8.5,6.6-11.2,15.4-11.2,22.6,0,45.3,0,67.9,0,8.9,0,12.7,2.7,15.6,11,1.9,5.6,3.9,11.2,5.9,16.8,3.1-1.3,5.8-5.8,8.5-1.9,3.2,4.7-3.2,5.5-4.8,8.6Zm-59.3-27.6c-11.5,0-23,0-34.5,0-4.3,0-6.9,1.7-8.1,5.8-.6,2.1-1.5,4.1-2,6.1-2.8,10.4-6.5,20.2-15.5,27.1-3.2,2.4-4,6.4-4,10.4,0,8,0,16,0,24,0,6.3,1.7,8,8,8.1,8,0,16,0,24,0q7.9,0,7.9,7.6c0,2.2,.3,4.4,0,6.5-.6,4,1.2,4.6,4.7,4.5,12.3-.2,24.7,0,37,0q7.3,0,7.2-7.4c0-.2,0-.3,0-.5,.6-3.3-.8-4.2-4.1-4.1-10,.2-20,0-30,0-2.5,0-5.6,.3-5.6-3.2,0-3.5,3-3.3,5.5-3.4,1.3,0,2.7,0,4,0,20.7,0,41.3,0,62,0,6.3,0,8-1.8,8.1-8,0-8,0-16,0-24,0-4.4-1.1-8.4-4.6-11.2-7.8-6.2-11.7-14.6-14.1-24-.7-2.7-1.8-5.4-2.6-8.1-1.3-4.5-4-6.4-8.8-6.3-11.5,.2-23,0-34.5,0Zm.4-116.1c-13,0-25.9,0-38.9,0-6.2,0-7.4,1.1-7.4,7.2,0,21.1,0,42.2,0,63.4,0,5.8,1.2,7,7.1,7,26.1,0,52.2,0,78.3,0,5.7,0,6.9-1.3,6.9-7.2,0-21.1,0-42.2,0-63.4,0-5.8-1.2-7-7.1-7-13,0-25.9,0-38.9,0Zm-.7,95.5c25.6,0,51.2-.1,76.9,.1,4.4,0,5.2-1.5,5-5.4-.2-3.4,.1-5.7-4.8-5.7-51.1,.2-102.1,.2-153.2,0-4.9,0-4.7,2.2-4.8,5.7-.2,3.9,.6,5.5,5,5.4,25.3-.2,50.6-.1,75.9-.1Zm97.2,37.3c0-26.3,0-52.6,0-78.9,0-3.4-.4-5-4.5-4.9-3.7,0-4.2,1.4-4.2,4.7,0,52.8,.1,105.5,0,158.3,0,3.6,1.1,4.3,4.5,4.4,3.8,0,4.2-1.4,4.2-4.6-.1-26.3,0-52.6,0-78.9ZM35.1,49c4.5,0,9,.1,13.5,0,4.4-.1,10.2,1.9,12.9-.8,2.7-2.8,.4-8.5,.9-13,.3-3.4-.7-4.5-4.3-4.5-12.3,.2-24.6,0-36.9,.1-4.6,0-10.6-2.1-13.3,1-2.7,3-.5,8.9-.8,13.5-.2,2.8,.8,3.8,3.7,3.7,8.1-.2,16.3,0,24.4,0Zm13.5,35.5c2.3,0,4.7,0,7,0,7.1,0,6.9,0,6.9-7,0-3.1-.8-4-3.9-3.9-5.7,.3-11.3,0-17,0-7.6,0-7.5,0-7.4,7.4,0,2.6,.7,3.6,3.4,3.5,3.7-.2,7.3,0,11,0Zm133.8,0c2.5,0,5,0,7.5,0,7.8-.2,6.8,1.6,7-7.3,0-2.9-.9-3.7-3.7-3.6-5.3,.2-10.7,0-16,0-8.7,0-8.6,0-9,8.6-.1,2,.6,2.3,2.2,2.2,4,0,8,0,12,0ZM48.5,56c-3.7,0-7.3,.2-11,0-4.3-.3-3.5,2.6-3.3,4.9,.2,2.3-1.9,6.1,3.3,5.9,5.8-.2,11.6,0,17.4,0,8,0,7.9,0,7.4-7.9-.1-2.1-.7-2.9-2.9-2.8-3.6,.1-7.3,0-11,0Zm134.5,0c-2.5,0-5,0-7.5,0-7.2,0-7,0-6.9,7.3,0,3.1,1.3,3.6,3.9,3.5,5.6-.1,11.3,0,16.9,0,8,0,7.9,0,7.4-7.8-.1-2.1-.7-3-2.9-2.9-3.6,.1-7.3,0-11,0ZM77.5,211.1c-8.6,.3-7.6-1.8-7.8,7.7,0,3.2,.9,4.6,4.2,4.3,2.5-.2,5,0,7.4,0,1.2,0,2.6,0,2.7-1.5,.1-3.3,.7-6.8-.4-9.7-.7-1.8-4.2-.4-6.2-.7Zm76.6,0q-7.5,0-7.3,7.7c0,.5,0,1,0,1.5,0,1.8,.7,2.8,2.6,2.8,3.1,0,6.3,0,9.4,0,1.3,0,2.1-.6,2.4-2,2-6.9-.2-10-7.1-10Z"/>
  <path class="cls-1" d="M115.5,128.7c10.5,0,21,.2,31.5,0,4.1,0,6,1.4,7.1,5.2,1.9,6.4,4.2,12.6,6.3,18.9,2.4,7.1,1.8,8.1-5.5,9-20.2,2.4-40.5,3.1-60.8,1.6-6.3-.5-12.6-1-18.9-1.9-6.3-.8-6.9-2-5-7.8,2.3-6.9,4.8-13.8,7-20.7,1-3.3,2.9-4.4,6.2-4.3,10.7,.2,21.3,0,32,0Zm.2,7h-17q-16.3,0-20.4,15.9c-.6,2.2-.5,3.2,2.2,3.5,23.4,2.7,46.8,2.6,70.2,0,2.4-.3,2.7-1.2,2-3.2-1.5-4.2-3-8.5-4.2-12.8-.8-2.8-2.2-3.5-5-3.5-9.3,.2-18.6,0-28,0Z"/>
  <path class="cls-1" d="M78.4,198.5c-2.2-.1-4.3,0-6.5-.5-6-1.1-9.9-6.9-8.9-12.9,.9-5.5,6.8-9.8,12.5-9.1,3,.4,5.9,1.1,8.8,1.7,6,1.4,9.1,5.3,8.8,10.9-.3,5.3-4.4,9.2-10.2,9.7-1.5,.1-3,0-4.5,0,0,0,0,.1,0,.2Zm0-7.1c1.2,0,2.3,0,3.5,0,2.1,0,4.1-.6,4.3-3.1,.3-2.5-1.4-3.6-3.5-4.1-2.4-.5-4.9-.9-7.3-1.2-2.8-.4-5.1,.5-5.4,3.6-.4,3.4,1.9,4.7,4.9,4.8,1.2,0,2.3,0,3.5,0Z"/>
  <path class="cls-1" d="M150.5,198.3c-1.7,0-3.3,.2-5,0-5.2-.7-9.2-5-9.4-10-.2-4.9,3.2-9.1,8.4-10.3,2.6-.6,5.2-1,7.8-1.5,7-1.4,13,2.6,14,9.2,1,6.7-3.7,12.2-10.8,12.7-1.7,.1-3.3,0-5,0,0,0,0,0,0-.1Zm.5-6.8c2.9-.4,6.2,.9,8.2-2.5,.9-1.5,.7-2.9-.3-4.2-2.5-3.3-5.7-1.6-8.7-1.1-2.9,.5-7.3,0-6.8,4.5,.5,4.6,4.9,2.7,7.6,3.2Z"/>
  <path class="cls-1" d="M115.4,193.9c-3,0-6,0-9,0-2.1,0-3.5-1.1-3.5-3.3,0-2.3,1.5-3.4,3.5-3.4,6-.1,11.9-.1,17.9,0,2.2,0,3.9,1.1,3.8,3.6-.1,2.3-1.7,3.1-3.7,3.1-3,0-6,0-9,0Z"/>
  <path class="cls-1" d="M108.2,28.5c-2.5,5.6,3.1,7.5,5.9,10.8,1.8,2.1,2.9,0,4-1.1,5.6-5.5,11.1-11,16.6-16.5,1.8-1.7,3.7-4.1,6.3-1.7,2.9,2.7,.4,4.7-1.5,6.6-5.5,5.5-11,11.1-16.7,16.5-2.1,2-2,3.1,0,5.1,3.2,3.1,5.7,6.2,11.2,4.8,4.2-1.1,7.4,2.3,10,5.4,1.2,1.5,1.3,3.1,0,4.5-1.6,1.6-3.2,1.5-4.9,0-.6-.5-1.2-1.2-1.8-1.7-2.1-1.9-4.5-2.6-6.6-.3-2.1,2.2-1.4,4.5,.6,6.6,1.5,1.5,3.5,3,2.2,5.5-1.3,2.3-3.3,2.7-5.4,1-4.1-3.2-6.3-7.3-5.2-12.6,.4-2,.4-3.7-1.4-4.8-2.5-1.4-2.5,1.4-3.5,2.3-3.5,3.3-6.8,6.9-10.3,10.1-5,4.5-11.6,4.3-16-.4-4.2-4.4-4.1-10.8,.6-15.6,3.5-3.6,7.1-7,10.6-10.6,.8-.8,2.9-1,1.5-2.9-.9-1.3-2.1-2.2-3.8-1.5-.5,.2-1,.3-1.4,.4-6.6,1-12.4-3.4-13.1-9.9-.7-6.3,4.5-12.2,10.9-12.4,6.4-.2,11.5,5.2,11.3,12.3Zm6,22.6c0-1.6-.8-2.9-2.2-3.6-1.8-1-3.6-.7-5,.7-3.3,3.2-6.7,6.4-9.8,9.8-1.8,1.9-2.1,4.2-.2,6.2,2,2,4.2,1.7,6.2,0,3.4-3.2,6.6-6.5,9.8-9.8,.9-.9,1.2-2,1.2-3.1Zm-16.9-28c-2.4,.2-4.1,1.3-4.3,3.9-.2,2.8,1.3,4.4,4,4.6,2.4,.2,4.1-1.2,4.3-3.8,.2-2.7-1.3-4.3-4-4.7Z"/>
</svg>